<svg width="25" height="24" viewBox="0 0 25 24" fill="none" xmlns="http://www.w3.org/2000/svg">
	<path
		d="M6.66681 15.6666V10.6667C6.66681 10.5745 6.59231 10.5 6.50015 10.5H3.50015C3.40798 10.5 3.3335 10.5745 3.3335 10.6667V15.6666C3.3335 15.7588 3.408 15.8333 3.50015 15.8333V16C3.40798 16 3.3335 16.0745 3.3335 16.1666V16.8333C3.3335 16.9255 3.408 17 3.50015 17H6.50015C6.59233 17 6.66681 16.9254 6.66681 16.8333V16.1667C6.66681 16.0745 6.59231 16 6.50015 16V15.8333C6.59231 15.8333 6.66681 15.7588 6.66681 15.6666Z"
		fill="rgb(163,230,53)" />
	<path
		d="M3.66668 10.1667H6.33334C6.42552 10.1667 6.5 10.0922 6.5 10V9.83338C6.5 8.73772 5.97649 7.69105 5.1 7.03337C5.04067 6.98888 4.95933 6.98888 4.9 7.03337C4.0235 7.69105 3.5 8.7377 3.5 9.83338V10C3.50002 10.0922 3.5745 10.1667 3.66668 10.1667Z"
		fill="rgb(163,230,53)" />
	<path
		d="M11.6668 15.6666V10.6667C11.6668 10.5745 11.5923 10.5 11.5002 10.5H8.50015C8.40798 10.5 8.3335 10.5745 8.3335 10.6667V15.6666C8.3335 15.7588 8.408 15.8333 8.50015 15.8333V16C8.40798 16 8.3335 16.0745 8.3335 16.1666V16.8333C8.3335 16.9255 8.408 17 8.50015 17H11.5002C11.5923 17 11.6668 16.9254 11.6668 16.8333V16.1667C11.6668 16.0745 11.5923 16 11.5002 16V15.8333C11.5923 15.8333 11.6668 15.7588 11.6668 15.6666Z"
		fill="rgb(163,230,53)" />
	<path
		d="M8.66668 10.1667H11.3333C11.4255 10.1667 11.5 10.0922 11.5 10V9.83338C11.5 8.73772 10.9765 7.69105 10.1 7.03337C10.0407 6.98888 9.95933 6.98888 9.9 7.03337C9.0235 7.69105 8.5 8.7377 8.5 9.83338V10C8.50002 10.0922 8.5745 10.1667 8.66668 10.1667Z"
		fill="rgb(163,230,53)" />
	<path
		d="M16.6668 15.6666V10.6667C16.6668 10.5745 16.5923 10.5 16.5002 10.5H13.5002C13.408 10.5 13.3335 10.5745 13.3335 10.6667V15.6666C13.3335 15.7588 13.408 15.8333 13.5002 15.8333V16C13.408 16 13.3335 16.0745 13.3335 16.1666V16.8333C13.3335 16.9255 13.408 17 13.5002 17H16.5002C16.5923 17 16.6668 16.9254 16.6668 16.8333V16.1667C16.6668 16.0745 16.5923 16 16.5002 16V15.8333C16.5923 15.8333 16.6668 15.7588 16.6668 15.6666Z"
		fill="rgb(163,230,53)" />
	<path
		d="M13.6667 10.1667H16.3333C16.4255 10.1667 16.5 10.0922 16.5 10V9.83338C16.5 8.73772 15.9765 7.69105 15.1 7.03337C15.0407 6.98888 14.9593 6.98888 14.9 7.03337C14.0235 7.69105 13.5 8.7377 13.5 9.83338V10C13.5 10.0922 13.5745 10.1667 13.6667 10.1667Z"
		fill="rgb(163,230,53)" />
	<path
		d="M21.6668 15.6666V10.6667C21.6668 10.5745 21.5923 10.5 21.5002 10.5H18.5002C18.408 10.5 18.3335 10.5745 18.3335 10.6667V15.6666C18.3335 15.7588 18.408 15.8333 18.5002 15.8333V16C18.408 16 18.3335 16.0745 18.3335 16.1666V16.8333C18.3335 16.9255 18.408 17 18.5002 17H21.5002C21.5923 17 21.6668 16.9254 21.6668 16.8333V16.1667C21.6668 16.0745 21.5923 16 21.5002 16V15.8333C21.5923 15.8333 21.6668 15.7588 21.6668 15.6666Z"
		fill="rgb(163,230,53)" />
	<path
		d="M18.6667 10.1667H21.3333C21.4255 10.1667 21.5 10.0922 21.5 10V9.83338C21.5 8.73772 20.9765 7.69105 20.1 7.03337C20.0407 6.98888 19.9593 6.98888 19.9 7.03337C19.0235 7.69105 18.5 8.7377 18.5 9.83338V10C18.5 10.0922 18.5745 10.1667 18.6667 10.1667Z"
		fill="rgb(163,230,53)" />
</svg>
	