<svg width="31" height="24" viewBox="0 0 31 24" fill="none" xmlns="http://www.w3.org/2000/svg">
	<g clipPath="url(#clip0_246_796)">
	<path d="M11.0552 11.0629L11.5783 10.1568L10.0568 9.27838L9.53365 10.1844L8.87056 10.6223L11.0076 11.8561L11.0552 11.0629Z" fill="#FFFDF5"/>
	<path d="M10.8604 12.2784L8.57812 10.9607L6.16236 15.1449L8.44466 16.4626L10.8604 12.2784Z" fill="#FFFDF5"/>
	<path d="M12.6735 7.48409L12.8977 6.53499C12.92 6.44058 12.8778 6.34271 12.7938 6.29417C12.7099 6.24574 12.6039 6.25808 12.5333 6.32457L11.8236 6.99334C11.2251 7.5574 10.7106 8.2007 10.2831 8.90206L11.7908 9.77251C12.1844 9.05162 12.4843 8.28445 12.6735 7.48409Z" fill="#FFFDF5"/>
	<path d="M7.77215 17.2373C7.78704 17.2251 7.80222 17.2133 7.81565 17.1993L8.18334 16.8189L5.98452 15.5494L5.83878 16.0579C5.83353 16.0767 5.8307 16.0956 5.8278 16.1147C5.67583 16.1416 5.53572 16.2306 5.4527 16.3744L5.33498 16.5783C5.18575 16.8368 5.27459 17.1683 5.53304 17.3175L6.87807 18.094C7.13635 18.2431 7.46804 18.1544 7.61725 17.896L7.73497 17.6921C7.81804 17.5483 7.82506 17.3824 7.77215 17.2373Z" fill="#FFFDF5"/>
	</g>
	<g clipPath="url(#clip1_246_796)">
	<path d="M17.0552 11.0629L17.5783 10.1568L16.0568 9.27838L15.5336 10.1844L14.8706 10.6223L17.0076 11.8561L17.0552 11.0629Z" fill="#FFFDF5"/>
	<path d="M16.8604 12.2784L14.5781 10.9607L12.1624 15.1449L14.4447 16.4626L16.8604 12.2784Z" fill="#FFFDF5"/>
	<path d="M18.6735 7.48409L18.8977 6.53499C18.92 6.44058 18.8778 6.34271 18.7938 6.29417C18.7099 6.24574 18.6039 6.25808 18.5333 6.32457L17.8236 6.99334C17.2251 7.5574 16.7106 8.2007 16.2831 8.90206L17.7908 9.77251C18.1844 9.05162 18.4843 8.28445 18.6735 7.48409Z" fill="#FFFDF5"/>
	<path d="M13.7722 17.2373C13.787 17.2251 13.8022 17.2133 13.8156 17.1993L14.1833 16.8189L11.9845 15.5494L11.8388 16.0579C11.8335 16.0767 11.8307 16.0956 11.8278 16.1147C11.6758 16.1416 11.5357 16.2306 11.4527 16.3744L11.335 16.5783C11.1857 16.8368 11.2746 17.1683 11.533 17.3175L12.8781 18.094C13.1363 18.2431 13.468 18.1544 13.6173 17.896L13.735 17.6921C13.818 17.5483 13.8251 17.3824 13.7722 17.2373Z" fill="#FFFDF5"/>
	</g>
	<g clipPath="url(#clip2_246_796)">
	<path d="M23.0552 11.0629L23.5783 10.1568L22.0568 9.27838L21.5336 10.1844L20.8706 10.6223L23.0076 11.8561L23.0552 11.0629Z" fill="#FFFDF5"/>
	<path d="M22.8604 12.2784L20.5781 10.9607L18.1624 15.1449L20.4447 16.4626L22.8604 12.2784Z" fill="#FFFDF5"/>
	<path d="M24.6735 7.48409L24.8977 6.53499C24.92 6.44058 24.8778 6.34271 24.7938 6.29417C24.7099 6.24574 24.6039 6.25808 24.5333 6.32457L23.8236 6.99334C23.2251 7.5574 22.7106 8.2007 22.2831 8.90206L23.7908 9.77251C24.1844 9.05162 24.4843 8.28445 24.6735 7.48409Z" fill="#FFFDF5"/>
	<path d="M19.7722 17.2373C19.787 17.2251 19.8022 17.2133 19.8156 17.1993L20.1833 16.8189L17.9845 15.5494L17.8388 16.0579C17.8335 16.0767 17.8307 16.0956 17.8278 16.1147C17.6758 16.1416 17.5357 16.2306 17.4527 16.3744L17.335 16.5783C17.1857 16.8368 17.2746 17.1683 17.533 17.3175L18.8781 18.094C19.1363 18.2431 19.468 18.1544 19.6173 17.896L19.735 17.6921C19.818 17.5483 19.8251 17.3824 19.7722 17.2373Z" fill="#FFFDF5"/>
	</g>
	<defs>
	<clipPath id="clip0_246_796">
	<rect width="13.1769" height="13.1769" fill="white" transform="translate(7.08838 3) rotate(30)"/>
	</clipPath>
	<clipPath id="clip1_246_796">
	<rect width="13.1769" height="13.1769" fill="white" transform="translate(13.0884 3) rotate(30)"/>
	</clipPath>
	<clipPath id="clip2_246_796">
	<rect width="13.1769" height="13.1769" fill="white" transform="translate(19.0884 3) rotate(30)"/>
	</clipPath>
	</defs>
	</svg>
	