<svg width="25" height="24" viewBox="0 0 25 24" fill="none" xmlns="http://www.w3.org/2000/svg">
<path fill-rule="evenodd" clip-rule="evenodd" d="M13.3345 17.9738C13.3345 17.1559 13.3345 16.5055 13.3774 15.9808C13.3839 15.9011 13.3914 15.8232 13.4003 15.7469C13.0244 15.8655 12.6253 15.9295 12.2119 15.9295C10.6956 15.9295 9.38401 15.0726 8.68765 13.8213C8.52649 13.5317 8.63059 13.1664 8.92015 13.0052C9.20971 12.8441 9.57505 12.9482 9.73621 13.2377C10.2375 14.1385 11.1644 14.7295 12.2119 14.7295C12.753 14.7295 13.2585 14.5728 13.6908 14.2989C13.8316 14.2096 13.9648 14.1079 14.0889 13.995C14.4121 13.5778 14.825 13.2345 15.3001 12.9924C15.7197 12.7786 16.1779 12.6868 16.7152 12.6429C17.24 12.6 17.8904 12.6 18.7083 12.6H18.7291H19.9299C19.9345 12.2205 19.9345 11.7969 19.9345 11.3172V11.2V11.0877C19.9347 9.70681 19.9347 8.88991 19.7505 8.20243C19.2512 6.33889 17.7956 4.88335 15.9321 4.38403C15.2446 4.19981 14.4277 4.19989 13.0468 4.20002L12.9345 4.20002H12.112C11.0128 4.20002 10.1572 4.20002 9.46729 4.24709C8.76733 4.29485 8.19433 4.39306 7.66801 4.61108C6.34483 5.15914 5.2936 6.21037 4.74554 7.53355C4.52752 8.05987 4.42931 8.63287 4.38155 9.33283C4.33449 10.0227 4.33449 10.8783 4.33449 11.9775V12.8001L4.33448 12.9124C4.33435 14.2933 4.33428 15.1102 4.51849 15.7977C5.01781 17.6611 6.47335 19.1167 8.33689 19.6161C9.02437 19.8003 9.84127 19.8002 11.2222 19.8H11.3345H11.4516C12.201 19.8001 12.8133 19.8001 13.3345 19.7824L13.3077 18.5824L13.3345 18.5814V17.9738ZM14.6818 10.7724C15.1713 10.7724 15.568 10.3756 15.568 9.88615C15.568 9.39679 15.1713 9.00001 14.6818 9.00001C14.1924 9.00001 13.7957 9.39679 13.7957 9.88615C13.7957 10.3756 14.1924 10.7724 14.6818 10.7724ZM9.69721 10.7724C10.1866 10.7724 10.5834 10.3756 10.5834 9.88615C10.5834 9.39679 10.1866 9.00001 9.69721 9.00001C9.20779 9.00001 8.81107 9.39679 8.81107 9.88615C8.81107 10.3756 9.20779 10.7724 9.69721 10.7724Z" fill="white"/>
<path d="M15.0429 19.5751C15.918 19.3406 16.7196 18.9336 17.4094 18.392C18.8616 17.3586 19.834 15.6949 19.9273 13.8H18.6817C17.8596 13.8 17.2735 13.8012 16.8132 13.8389C16.35 13.8767 16.0673 13.9484 15.8451 14.0616C15.3935 14.2917 15.0264 14.6588 14.7963 15.1104C14.683 15.3326 14.6114 15.6153 14.5735 16.0785C14.5351 16.5486 14.5347 17.15 14.5347 18V18.2628V19.6818C14.7129 19.6535 14.8809 19.6185 15.0429 19.5751Z" fill="white"/>
</svg>
