<svg width="24" height="24" viewBox="0 0 24 24" fill="none" xmlns="http://www.w3.org/2000/svg">
<path d="M23.3557 9.59387H22.4474C22.0611 8.66753 21.2869 7.96517 20.0357 7.76528C19.0853 7.6133 16.5906 7.58044 16.5906 7.58044H7.4094C7.4094 7.58044 4.91468 7.6133 3.96435 7.76528C2.71321 7.96517 1.93901 8.66753 1.55267 9.59387H0.644295C0.288483 9.59387 0 9.88235 0 10.2382C0 10.594 0.288483 10.8825 0.644295 10.8825H1.25485C1.1735 12.0554 1.51168 13.3168 2.07962 14.2534C3.49369 16.5858 6.52727 17.5764 9.60306 14.4136C10.5794 13.4099 11.0547 12.5702 11.2868 11.7255C11.2868 11.7255 11.3269 11.5269 11.3481 11.4606C11.4362 11.1851 11.6921 10.9629 11.9933 10.9629H12.0067C12.3006 10.9629 12.5514 11.1784 12.6452 11.4439C12.6706 11.5162 12.7103 11.709 12.7114 11.7134C12.9428 12.5602 13.4182 13.4153 14.3969 14.4215C17.4727 17.5842 20.5063 16.5825 21.9204 14.2503C22.4907 13.3097 22.7877 12.0056 22.7316 10.8825H23.3557C23.7115 10.8825 24 10.594 24 10.2382C24 9.88235 23.7115 9.59387 23.3557 9.59387ZM12.654 9.78877C12.4512 9.71781 12.2334 9.6744 12.0067 9.6744H11.9933C11.7666 9.6744 11.5488 9.71781 11.346 9.78877C11.2621 9.44616 11.1225 9.19118 10.9313 8.86904H13.0688C12.8774 9.19118 12.7379 9.44616 12.654 9.78877Z" fill="white"/>
</svg>
