<svg width="25" height="24" viewBox="0 0 25 24" fill="none" xmlns="http://www.w3.org/2000/svg">
<g clipPath="url(#clip0_370_1475)">
<path d="M21.6651 7.54144C21.8735 7.54144 22.0759 7.51055 22.2724 7.46455C21.9734 5.85832 21.7374 4.92903 21.7374 4.92903C21.1624 4.34871 20.3172 3.87618 19.4536 3.50354C19.1934 3.91167 19.0356 4.3934 19.0356 4.91326C19.0363 6.3624 20.2147 7.54144 21.6651 7.54144Z" fill="white"/>
<path d="M1.99902 7.46392C2.19421 7.50993 2.39598 7.54081 2.60563 7.54081C4.05543 7.54081 5.23447 6.36178 5.23447 4.91197C5.23447 4.39212 5.07805 3.9117 4.81714 3.50226C3.95422 3.87555 3.10839 4.34743 2.53334 4.92775C2.53334 4.9284 2.29674 5.8577 1.99902 7.46392Z" fill="white"/>
<path d="M21.6654 8.19867C19.8528 8.19867 18.3793 6.7252 18.3793 4.91262C18.3793 4.30536 18.5561 3.7441 18.844 3.25579C17.3988 2.70702 16.0692 2.44216 16.0692 2.44216L16.0443 0.88392C14.8626 0.205679 13.5916 0.0499199 12.7378 0.0111445C12.4368 -0.0026569 11.8342 -0.0026569 11.5332 0.0111445C10.6795 0.0512343 9.40775 0.205679 8.22675 0.88392L8.20046 2.44216C8.20046 2.44216 6.87224 2.70768 5.42572 3.25645C5.71358 3.74476 5.89102 4.30667 5.89102 4.91327C5.89102 6.72586 4.4169 8.19933 2.60497 8.19933C2.35589 8.19933 2.11469 8.16581 1.88138 8.11323C1.30435 11.4059 0.591939 16.9251 0.852851 23.1094H1.15254V23.2738C1.15254 23.6372 1.46866 23.931 1.85904 23.931H3.51455C3.90493 23.931 4.22105 23.6372 4.22105 23.2738V23.1094H4.52666C4.52666 23.1094 4.21185 13.3985 5.89102 10.9103V20.0087V20.8263V23.0194C5.89102 23.0194 9.03972 23.8869 11.6633 24V1.53719C11.6633 1.53719 10.1938 1.62262 9.32823 1.28285C9.32823 1.28285 9.51225 0.66704 11.5325 0.689385C11.8335 0.692671 12.4355 0.684785 12.7372 0.689385C14.7384 0.720931 14.9415 1.28285 14.9415 1.28285C14.0766 1.62262 12.6064 1.53719 12.6064 1.53719V24C15.2306 23.8869 18.3793 23.0194 18.3793 23.0194V20.8263V20.0094V10.9097C20.0585 13.3972 19.7437 23.1094 19.7437 23.1094H20.048V23.2738C20.048 23.6365 20.3634 23.931 20.7538 23.931H22.41C22.801 23.931 23.1172 23.6365 23.1172 23.2738V23.1094H23.4162C23.6764 16.9238 22.964 11.4032 22.389 8.11257C22.1557 8.16515 21.9145 8.19867 21.6654 8.19867Z" fill="white"/>
</g>
<defs>
<clipPath id="clip0_370_1475">
<rect width="24" height="24" fill="white" transform="translate(0.134277)"/>
</clipPath>
</defs>
</svg>
