<svg width="25" height="24" viewBox="0 0 25 24" fill="none" xmlns="http://www.w3.org/2000/svg">
<g clipPath="url(#clip0_329_1024)">
<path d="M9.13428 0.750244C9.13428 2.40471 10.4797 3.75018 12.1342 3.75018C13.7872 3.75018 15.1341 2.40471 15.1341 0.750244H9.13428Z" fill="white"/>
<path d="M23.756 3.84918L18.5061 0.849242C18.3928 0.784451 18.2646 0.750329 18.1341 0.750244H16.6341C16.6341 3.23119 14.6151 5.25015 12.1342 5.25015C9.65325 5.25015 7.6343 3.23119 7.6343 0.750244H6.13433C6.00383 0.750244 5.87634 0.784743 5.76234 0.849242L0.512451 3.84918C0.366788 3.93227 0.253195 4.06181 0.189837 4.21708C0.126479 4.37235 0.117015 4.54438 0.162958 4.70566L1.66293 9.95555C1.77392 10.3455 2.17891 10.575 2.56591 10.4775L4.63436 9.96155V22.4998C4.63436 22.9138 4.97035 23.2498 5.38435 23.2498H18.8841C19.298 23.2498 19.634 22.9138 19.634 22.4998V9.96155L21.7025 10.4775C22.0895 10.5765 22.493 10.3455 22.6055 9.95555L24.1054 4.70566C24.1514 4.54438 24.1419 4.37235 24.0786 4.21708C24.0152 4.06181 23.9016 3.93227 23.756 3.84918Z" fill="white"/>
</g>
<defs>
<clipPath id="clip0_329_1024">
<rect width="24" height="24" fill="white" transform="translate(0.134277)"/>
</clipPath>
</defs>
</svg>
