<?xml version="1.0" encoding="iso-8859-1"?>
<!-- Uploaded to: SVG Repo, www.svgrepo.com, Generator: SVG Repo Mixer Tools -->
<svg fill="gray" height="800px" width="800px" version="1.1" id="Layer_1" xmlns="http://www.w3.org/2000/svg" xmlns:xlink="http://www.w3.org/1999/xlink" 
	 viewBox="0 0 512 512" xml:space="preserve">
<g>
	<g>
		<g>
			<path d="M170.667,290.133c0-30.037-22.298-54.895-51.2-59.051v-44.928c9.916-3.533,17.067-12.911,17.067-24.021V128
				c0-11.11-7.151-20.489-17.067-24.021V59.733c0-4.719-3.823-8.533-8.533-8.533c-9.412,0-17.067-7.654-17.067-17.067
				c0-9.412,7.654-17.067,17.067-17.067c9.412,0,17.067,7.654,17.067,17.067c0,12.006,1.843,51.2,25.6,51.2
				c4.71,0,8.533-3.814,8.533-8.533s-3.823-8.533-8.533-8.533c-3.439,0-8.533-14.336-8.533-34.133
				C145.067,15.309,129.758,0,110.933,0C92.109,0,76.8,15.309,76.8,34.133c0,15.872,10.897,29.261,25.6,33.05v36.796
				C92.484,107.511,85.333,116.89,85.333,128v34.133c0,11.11,7.151,20.489,17.067,24.021v44.928
				c-28.902,4.156-51.2,29.013-51.2,59.051s22.298,54.895,51.2,59.051v35.686c-19.447,3.951-34.133,21.197-34.133,41.796
				c0,20.599,14.686,37.845,34.133,41.796v35.004c0,4.719,3.823,8.533,8.533,8.533c4.71,0,8.533-3.814,8.533-8.533v-35.004
				c19.447-3.951,34.133-21.197,34.133-41.796c0-20.599-14.686-37.845-34.133-41.796v-35.686
				C148.369,345.028,170.667,320.171,170.667,290.133z M131.704,253.09c12.996,7.33,21.896,21.094,21.896,37.043
				s-8.9,29.713-21.896,37.043c3.268-10.65,4.83-23.868,4.83-37.043S134.972,263.74,131.704,253.09z M90.163,327.177
				c-12.996-7.33-21.897-21.094-21.897-37.043s8.9-29.713,21.897-37.043c-3.268,10.65-4.83,23.868-4.83,37.043
				S86.895,316.527,90.163,327.177z"/>
			<path d="M409.6,384.87v-35.686c28.902-4.156,51.2-29.013,51.2-59.051s-22.298-54.895-51.2-59.051v-44.928
				c9.916-3.533,17.067-12.911,17.067-24.021V128c0-11.11-7.151-20.489-17.067-24.021V59.733c0-4.719-3.823-8.533-8.533-8.533
				C391.654,51.2,384,43.546,384,34.133c0-9.412,7.654-17.067,17.067-17.067c9.412,0,17.067,7.654,17.067,17.067
				c0,12.006,1.843,51.2,25.6,51.2c4.71,0,8.533-3.814,8.533-8.533s-3.823-8.533-8.533-8.533c-3.439,0-8.533-14.336-8.533-34.133
				C435.2,15.309,419.891,0,401.067,0c-18.825,0-34.133,15.309-34.133,34.133c0,15.872,10.897,29.261,25.6,33.05v36.796
				c-9.916,3.533-17.067,12.911-17.067,24.021v34.133c0,11.11,7.151,20.489,17.067,24.021v44.928
				c-28.902,4.156-51.2,29.013-51.2,59.051s22.298,54.895,51.2,59.051v35.686c-19.447,3.951-34.133,21.197-34.133,41.796
				c0,20.599,14.686,37.845,34.133,41.796v35.004c0,4.719,3.823,8.533,8.533,8.533c4.71,0,8.533-3.814,8.533-8.533v-35.004
				c19.448-3.951,34.133-21.197,34.133-41.796C443.733,406.067,429.047,388.821,409.6,384.87z M421.837,253.09
				c12.996,7.33,21.897,21.094,21.897,37.043s-8.9,29.713-21.897,37.043c3.268-10.65,4.83-23.868,4.83-37.043
				S425.105,263.74,421.837,253.09z M380.297,327.177c-12.996-7.33-21.897-21.094-21.897-37.043s8.9-29.713,21.897-37.043
				c-3.268,10.65-4.83,23.868-4.83,37.043S377.028,316.527,380.297,327.177z"/>
		</g>
	</g>
</g>
</svg>