<svg width="25" height="24" viewBox="0 0 25 24" fill="none" xmlns="http://www.w3.org/2000/svg">
<path fill-rule="evenodd" clip-rule="evenodd" d="M7.26888 1.38849C8.76902 0.192381 11.1459 -0.0331147 12.1468 0.00365084C13.1477 -0.0331147 15.5246 0.192381 17.0247 1.38849L17.0427 1.40459C17.2832 1.61956 17.7791 2.06285 18.042 2.55273C18.1768 2.8346 18.3729 3.33706 18.4219 3.5454C18.4423 3.5801 18.4645 3.62705 18.4912 3.68386C18.6251 3.96809 18.8753 4.49921 19.6108 4.97925C20.2873 5.48907 20.5953 5.72273 20.6648 5.77584C20.914 6.69498 21.4271 8.57492 21.486 8.74159C21.5448 8.90826 21.6575 9.45648 21.7066 9.70975C21.7801 10.2898 21.7507 11.6804 21.0447 12.602C20.5251 13.102 19.9213 13.709 19.6843 13.95C19.5577 14.428 19.2382 15.7172 18.9734 17.0506C18.9875 17.1323 18.9935 17.2043 18.9987 17.2666C19.0208 17.5313 19.0284 17.6225 19.574 17.5531C20.2481 17.4673 20.7996 17.5163 20.7261 19.281C19.9784 20.5923 18.4587 22.8596 17.3556 23.411C16.7205 23.411 16.54 23.1911 16.1789 22.7512C16.0731 22.6224 15.9518 22.4747 15.7991 22.3081C15.3947 22.1488 15.1741 22.1855 14.4877 22.7983L14.438 22.8338C13.5972 23.4345 12.773 24.0233 12.2081 23.9993C11.6432 24.0233 10.6964 23.4345 9.85558 22.8338L9.80589 22.7983C9.11955 22.1855 8.89894 22.1488 8.49449 22.3081C8.34177 22.4747 8.22051 22.6224 8.11473 22.7512C7.75363 23.1911 7.57308 23.411 6.93797 23.411C5.83492 22.8596 4.31516 20.5923 3.56754 19.281C3.494 17.5163 4.04553 17.4673 4.71961 17.5531C5.26525 17.6225 5.27286 17.5313 5.29495 17.2666C5.30015 17.2043 5.30615 17.1323 5.32016 17.0506C5.05543 15.7172 4.73595 14.428 4.60931 13.95C4.37236 13.709 3.76854 13.102 3.24888 12.602C2.54293 11.6804 2.51351 10.2898 2.58705 9.70975C2.63607 9.45648 2.74883 8.90826 2.80766 8.74159C2.86649 8.57492 3.37961 6.69498 3.62882 5.77584C3.69827 5.72273 4.00631 5.48907 4.68284 4.97925C5.41828 4.49921 5.66849 3.96809 5.80239 3.68386C5.82915 3.62705 5.85127 3.5801 5.87168 3.5454C5.92071 3.33706 6.11681 2.8346 6.25162 2.55273C6.5145 2.06285 7.01039 1.61956 7.25086 1.40459L7.26888 1.38849ZM12.8792 14.5224C12.8792 14.9353 12.5445 15.27 12.1316 15.27C11.7187 15.27 11.384 14.9353 11.384 14.5224C11.384 14.1095 11.7187 13.7748 12.1316 13.7748C12.5445 13.7748 12.8792 14.1095 12.8792 14.5224ZM9.7539 17.6229C10.1668 17.6229 10.5015 17.2882 10.5015 16.8754C10.5015 16.4625 10.1668 16.1278 9.7539 16.1278C9.341 16.1278 9.00628 16.4625 9.00628 16.8754C9.00628 17.2882 9.341 17.6229 9.7539 17.6229ZM13.0508 16.8754C13.0508 17.383 12.6392 17.7945 12.1316 17.7945C11.6239 17.7945 11.2124 17.383 11.2124 16.8754C11.2124 16.3678 11.6239 15.9562 12.1316 15.9562C12.6392 15.9562 13.0508 16.3678 13.0508 16.8754ZM12.1316 19.9759C12.5445 19.9759 12.8792 19.6412 12.8792 19.2284C12.8792 18.8155 12.5445 18.4808 12.1316 18.4808C11.7187 18.4808 11.384 18.8155 11.384 19.2284C11.384 19.6412 11.7187 19.9759 12.1316 19.9759ZM15.2569 16.8754C15.2569 17.2882 14.9222 17.6229 14.5093 17.6229C14.0964 17.6229 13.7616 17.2882 13.7616 16.8754C13.7616 16.4625 14.0964 16.1278 14.5093 16.1278C14.9222 16.1278 15.2569 16.4625 15.2569 16.8754ZM12.1316 21.4956C14.6834 21.4956 16.7521 19.427 16.7521 16.8754C16.7521 14.3237 14.6834 12.2552 12.1316 12.2552C9.57972 12.2552 7.51103 14.3237 7.51103 16.8754C7.51103 19.427 9.57972 21.4956 12.1316 21.4956ZM16.0658 16.8754C16.0658 19.048 14.3044 20.8093 12.1316 20.8093C9.95878 20.8093 8.19737 19.048 8.19737 16.8754C8.19737 14.7027 9.95878 12.9415 12.1316 12.9415C14.3044 12.9415 16.0658 14.7027 16.0658 16.8754ZM18.2106 5.82121C18.4394 5.87023 18.9631 6.10553 19.2279 6.65456C19.2471 6.69451 19.2684 6.73761 19.2913 6.78383L19.2918 6.78488L19.2918 6.78492C19.6615 7.5331 20.4334 9.09514 19.522 11.287C18.9638 11.8898 18.4564 11.7503 17.9444 11.6095C17.8943 11.5958 17.8441 11.582 17.7939 11.5689C17.2179 11.3851 14.6318 10.0247 13.7371 6.88741C13.8229 6.01729 13.9332 5.72317 15.0118 5.4413C15.7471 5.22071 17.6436 5.53934 18.2106 5.82121ZM5.18237 6.65456C5.4471 6.10553 5.97085 5.87023 6.19963 5.82121C6.76662 5.53934 8.66311 5.22071 9.39847 5.4413C10.477 5.72317 10.5873 6.01729 10.6731 6.88741C9.77841 10.0247 7.19237 11.3851 6.61634 11.5689C6.5662 11.582 6.51617 11.5957 6.46617 11.6095L6.46611 11.6095L6.46606 11.6095L6.46588 11.6095C5.95379 11.7503 5.44643 11.8898 4.88822 11.287C3.97679 9.09514 4.7487 7.5331 5.11843 6.78492L5.11846 6.78488L5.11853 6.78473C5.14153 6.73818 5.16298 6.69477 5.18237 6.65456Z" fill="gray"/>
</svg>
