<svg width="24" height="24" viewBox="0 0 24 24" fill="none" xmlns="http://www.w3.org/2000/svg">
<path d="M19.6708 11.1429C19.4056 8.47286 17.9132 6.16661 15.7681 4.78768L14.5713 0H7.71415L6.51629 4.79159C4.14559 6.31634 2.57129 8.97182 2.57129 12C2.57129 15.0281 4.14554 17.6836 6.51629 19.2084L7.71415 24H14.5713L15.7682 19.2123C17.9132 17.8332 19.4056 15.527 19.6708 12.8571H21.4284V11.1429H19.6708ZM11.1427 18.8571C7.36165 18.8571 4.28557 15.781 4.28557 12C4.28557 8.21898 7.36165 5.14286 11.1427 5.14286C14.9238 5.14286 17.9999 8.21898 17.9999 12C17.9999 15.781 14.9238 18.8571 11.1427 18.8571Z" fill="gray"/>
<path d="M11.9999 12.066V7.71429H10.2856V12.594L12.449 15.7157L13.8505 14.7463L11.9999 12.066Z" fill="gray"/>
</svg>
