<?xml version="1.0"?>
<svg xmlns="http://www.w3.org/2000/svg" xmlns:xlink="http://www.w3.org/1999/xlink" xmlns:svgjs="http://svgjs.com/svgjs" version="1.1" width="512" height="512" x="0" y="0" viewBox="0 0 512.0005 512" style="enable-background:new 0 0 512 512" xml:space="preserve" class=""><g><path xmlns="http://www.w3.org/2000/svg" d="m221.816406 149.257812c13.507813 5.523438 26.148438 13.75 37.085938 24.695313 44.167968 44.179687 44.167968 116.066406 0 160.246094-10.789063 10.785156-23.375 19.132812-37.085938 24.753906v52.625l110.804688 45.628906v-393.554687l-110.804688-58.65625zm0 0" fill="#ffffff" data-original="#000000" style="" class=""/><path xmlns="http://www.w3.org/2000/svg" d="m500.757812 3.347656c-6.941406-4.210937-15.738281-4.46875-22.960937-.65625l-115.152344 60.964844v392.949219l136.949219-72.503907c7.652344-4.050781 12.40625-11.945312 12.40625-20.605468v-340.203125c0-8.109375-4.304688-15.75-11.242188-19.945313zm0 0" fill="#ffffff" data-original="#000000" style="" class=""/><path xmlns="http://www.w3.org/2000/svg" d="m137.203125 359.539062-90.917969 90.917969c3.351563 1.785157 7.074219 2.730469 10.925782 2.730469 2.539062 0 5.050781-.410156 7.375-1.203125l127.210937-42.40625v-42.9375c-4.292969.488281-8.636719.742187-13.019531.742187-14.464844-.003906-28.511719-2.699218-41.574219-7.84375zm0 0" fill="#ffffff" data-original="#000000" style="" class=""/><path xmlns="http://www.w3.org/2000/svg" d="m178.777344 339.613281c22.84375 0 44.324218-8.898437 60.476562-25.050781 33.347656-33.347656 33.347656-87.609375 0-120.957031-33.347656-33.347657-87.605468-33.34375-120.953125 0-29.722656 29.726562-32.929687 76.058593-9.660156 109.390625l-104.246094 104.242187c-5.859375 5.859375-5.859375 15.363281 0 21.226563 2.933594 2.929687 6.773438 4.398437 10.613281 4.398437 3.84375 0 7.683594-1.46875 10.613282-4.398437l104.230468-104.230469c14.25 9.980469 31.167969 15.378906 48.925782 15.378906zm0 0" fill="#ffffff" data-original="#000000" style="" class=""/><path xmlns="http://www.w3.org/2000/svg" d="m98.65625 173.953125c25.398438-25.394531 59.960938-36.191406 93.140625-32.378906v-137.929688l-141.941406 47.320313c-9.535157 3.160156-15.949219 12.058594-15.949219 22.113281v262.21875l39.523438-39.523437c-16.050782-40.726563-7.648438-88.945313 25.226562-121.820313zm0 0" fill="#ffffff" data-original="#000000" style="" class=""/></g></svg>
