<svg id="Layer_1" enable-background="new 0 0 512 512" fill = "#FFF" height="512" viewBox="0 0 512 512" width="512" xmlns="http://www.w3.org/2000/svg"><g><path d="m204.638 281.458c-.003-4.142-3.364-7.498-7.505-7.495l-44.366.031c-9.93.352-9.913 14.666.011 15l44.366-.031c4.142-.003 7.497-3.363 7.494-7.505z"/><path d="m169.144 211.691v-19.191c0-4.142-3.358-7.5-7.5-7.5h-51.896c-4.142 0-7.5 3.358-7.5 7.5v19.191c1.841 44.323 65.07 44.289 66.896 0zm-15 0c-1.016 24.419-35.89 24.4-36.896 0v-11.691h36.896z"/><path d="m214.215 245.093c18.443 0 33.448-14.984 33.448-33.402v-19.191c0-4.142-3.358-7.5-7.5-7.5h-51.896c-4.142 0-7.5 3.358-7.5 7.5v19.191c0 18.418 15.005 33.402 33.448 33.402zm-18.448-45.093h36.896v11.691c-1.016 24.419-35.889 24.4-36.896 0z"/><path d="m135.695 219.191c9.652 0 9.668-15 0-15-9.651 0-9.667 15 0 15z"/><path d="m214.215 219.191c9.652 0 9.668-15 0-15-9.652 0-9.668 15 0 15z"/><path d="m174.955 409.27c-9.652 0-9.668 15 0 15 9.652 0 9.668-15 0-15z"/><path d="m174.955 438.122c-9.652 0-9.668 15 0 15 9.652 0 9.668-15 0-15z"/><path d="m174.955 481.974c9.652 0 9.668-15 0-15-9.652 0-9.668 15 0 15z"/><path d="m296.516 419.197c-4.143 0-7.5 3.358-7.5 7.5v66.934c0 10.129 8.251 18.37 18.394 18.37h123.094c1.965 0 3.908-.801 5.298-2.191l47.931-47.827c1.396-1.396 2.202-3.334 2.202-5.309v-173.918c0-10.129-8.251-18.37-18.394-18.37h-34.611v-6.698c.078-16.856-19.904-26.281-32.803-15.663-6.908-5.921-18.395-5.92-25.303 0-12.906-10.62-32.879-1.189-32.802 15.663v6.698h-34.612c-10.143 0-18.394 8.241-18.394 18.37v63.717h-59.838c-5.229-7.947-15.163-6.847-21.211-1.078v-7.509c40.236-14.145 67.258-54.893 64.392-99.261 22.672 1.517 39.224-21.953 27.248-42.13v-29.207c12.971.531 24.239-9.88 24.239-22.975 0-12.668-10.307-22.974-22.975-22.974h-16.186v-91.036c0-16.709-13.597-30.303-30.31-30.303h-158.839c-16.713 0-30.31 13.594-30.31 30.303v91.036h-16.185c-12.668 0-22.974 10.306-22.974 22.974 0 13.095 11.267 23.506 24.238 22.975v29.208c-11.984 20.212 4.592 43.589 27.249 42.13-2.867 44.37 24.156 85.115 64.392 99.261v7.507c-6.05-5.765-15.982-6.868-21.211 1.08-6.79 0-13.669 0-20.374 0-37.445 0-67.908 30.454-67.908 67.888v90.138c0 9.385 15 9.813 15 0v-90.139c0-22.224 13.791-41.277 33.262-49.092l-13.723 33.741c-.821 2.018-.724 4.292.266 6.233l52.354 102.664c4.285 8.403 17.81 1.906 13.362-6.814l-50.795-99.608 12.708-31.25c2.165-5.322 7.276-8.761 13.021-8.761h10.703v45.359c0 7.313 6.61 13.427 13.883 12.864l12.511 85.885c1.408 9.662 16.255 7.535 14.844-2.162l-13.365-91.747 28.487-21.448 29.032 21.877-13.987 91.262c-1.396 9.11 13.266 12.461 14.827 2.272l13.165-85.901c7.142.212 13.29-5.864 13.29-12.903v-45.359h10.651c5.746 0 10.857 3.439 13.021 8.762l12.709 31.25-50.796 99.608c-4.249 8.331 8.861 15.645 13.362 6.814l52.354-102.664c.989-1.94 1.086-4.215.266-6.233 0 0-14.954-36.536-15.505-37.537h21.654v20.14c0 4.142 3.357 7.5 7.5 7.5s7.5-3.358 7.5-7.5v-98.857c0-1.858 1.522-3.37 3.394-3.37h34.612v6.905c-.078 16.856 19.903 26.281 32.802 15.663 6.908 5.921 18.395 5.92 25.303 0 12.906 10.62 32.879 1.189 32.803-15.663v-6.905h34.611c1.871 0 3.394 1.512 3.394 3.37v166.417h-29.537c-10.143 0-18.394 8.241-18.394 18.37v29.457h-115.593c-1.871 0-3.394-1.512-3.394-3.37v-66.934c.001-4.141-3.357-7.499-7.499-7.499zm-20.833-195.572h-3.325v-25.728c7.944-.851 16.189 4.07 16.189 12.864 0 7.093-5.771 12.864-12.864 12.864zm8.922-39.254c-3.898-1.321-8.147-1.707-12.248-1.474v-15.61h12.248zm-204.379-81.976h20.044c9.931-.344 9.923-14.659 0-15h-20.044v-57.092c0-8.438 6.868-15.303 15.31-15.303h158.838c8.442 0 15.31 6.865 15.31 15.303v57.092h-123.913c-9.931.344-9.923 14.659 0 15h123.914v18.943h-189.459zm-39.16 41.917c0-4.397 3.577-7.974 7.974-7.974h251.83c4.397 0 7.975 3.577 7.975 7.974s-3.577 7.975-7.975 7.975h-251.829c-4.397 0-7.975-3.578-7.975-7.975zm36.487 22.975v15.61c-4.101-.233-8.351.152-12.249 1.474v-17.084zm-3.325 56.338c-7.093 0-12.864-5.771-12.864-12.864 0-8.705 8.268-13.627 16.189-12.864v25.728zm18.325 22.696v-79.034h164.804v79.034c.004 45.429-37.021 82.381-82.466 82.307-45.401 0-82.338-36.922-82.338-82.307zm41.059 156.266v-44.667l29.055 22.792zm23.333-45.427v-15.196c5.819 1.089 11.816 1.664 17.946 1.664h.128c6.13 0 12.127-.576 17.946-1.664v15.209l-17.994 14.128zm59.354.763v44.662l-29.025-21.873zm145.873-66.481c-2.84 0-5.15-2.311-5.15-5.151v-28.603c.217-6.81 10.087-6.804 10.302 0v28.603c-.001 2.84-2.311 5.151-5.152 5.151zm25.303 0c-2.841 0-5.151-2.311-5.151-5.151v-28.603c.217-6.81 10.088-6.805 10.303 0v28.603c-.001 2.84-2.312 5.151-5.152 5.151zm30.454-5.151c-.217 6.81-10.088 6.805-10.303 0v-28.603c.217-6.81 10.088-6.805 10.303 0zm23.467 177.882h18.903l-22.296 22.248v-18.879c0-1.857 1.522-3.369 3.393-3.369z"/><path d="m349.197 476.25c4.822-.025 7.98-4.194 7.5-8.847 7.127-2.645 12.55-8.918 13.875-16.793 1.659-9.857-3.668-18.76-13.256-22.154-4.33-1.533-9.649-3.565-12.367-5.7-1.47-1.47.943-4.626 2.194-5.003 2.614-.788 5.889-.088 7.468.986 8.914 5.475 16.983-3.064 10.176-11.021-1.618-1.494-4.439-3.289-8.09-4.385.001-10.805-15.53-10.375-15 .439-6.007 2.252-10.435 7.59-11.682 14.195-1.229 6.52.942 12.875 5.666 16.583 4.399 3.456 10.593 5.91 16.63 8.046 2.755.975 3.922 2.833 3.469 5.523-.351 2.083-2.143 5.616-6.633 5.646-4.767.037-5.892-.144-9.363-2.418-3.465-2.27-8.114-1.302-10.384 2.165-2.27 3.465-1.3 8.114 2.165 10.383 3.811 2.496 6.843 3.755 10.132 4.361-.247 4.307 3.164 8.009 7.5 7.994z"/><path d="m333.475 342.821h108c9.931-.344 9.923-14.66 0-15h-108c-9.931.344-9.924 14.659 0 15z"/><path d="m333.475 375.026h108c9.931-.344 9.923-14.66 0-15h-108c-9.931.344-9.924 14.66 0 15z"/></g></svg>