<?xml version="1.0"?>
<svg xmlns="http://www.w3.org/2000/svg" xmlns:xlink="http://www.w3.org/1999/xlink" xmlns:svgjs="http://svgjs.com/svgjs" version="1.1" width="512" height="512" x="0" y="0" viewBox="0 0 512 512" style="enable-background:new 0 0 512 512" xml:space="preserve" class=""><g><g xmlns="http://www.w3.org/2000/svg"><g><path d="m190.038 449.77c-6.489-2.813-10.137-9.771-8.745-16.714l26.411-132.056h-41.704c-5.625 0-10.781-3.149-13.345-8.159-2.578-5.01-2.124-11.045 1.172-15.601l149.956-209.956c4.131-5.742 11.719-7.837 18.179-5.054 6.489 2.813 10.137 9.771 8.745 16.714l-26.411 132.056h41.704c5.61 0 10.752 3.135 13.33 8.115 2.563 4.98 2.153 10.986-1.084 15.557l-150.029 210.044c-4.196 5.849-11.79 7.812-18.179 5.054z" fill="#ffffff" data-original="#000000" style="" class=""/></g><path d="m209.324 145.205-32.313-32.313c6.738-25.122 2.256-52.104-12.612-73.916-23.144-33.969-69.55-47.856-107.182-33.149-4.688 1.831-8.145 5.918-9.199 10.854-1.04 4.937.469 10.063 4.014 13.652l27.363 27.657c5.771 5.771 5.908 15.185 0 21.094-5.654 5.654-15.381 5.713-21.152-.059l-27.598-27.304c-3.604-3.56-8.789-5.039-13.652-4.014-4.937 1.055-9.023 4.512-10.854 9.199-4.074 10.386-6.139 21.416-6.139 32.783 0 29.81 14.692 57.627 39.287 74.399 21.782 14.854 48.765 19.365 73.916 12.612l42.951 42.951z" fill="#ffffff" data-original="#000000" style="" class=""/><path d="m472.698 347.586c-21.841-14.897-48.779-19.321-73.901-12.612l-42.942-42.942-53.177 74.454 32.311 32.311c-6.738 25.107-2.256 52.104 12.612 73.916 16.772 24.595 44.589 39.287 74.399 39.287 11.367 0 22.397-2.065 32.783-6.138 4.688-1.831 8.145-5.918 9.199-10.854 1.04-4.937-.469-10.063-4.014-13.652l-27.363-27.656c-5.771-5.771-5.908-15.185 0-21.094 5.654-5.654 15.381-5.713 21.152.059l27.598 27.305c3.604 3.56 8.745 5.054 13.652 4.014 4.937-1.055 9.023-4.512 10.854-9.199 4.074-10.388 6.139-21.418 6.139-32.785 0-29.824-14.692-57.642-39.302-74.414z" fill="#ffffff" data-original="#000000" style="" class=""/></g></g></svg>
