<?xml version="1.0"?>
<svg xmlns="http://www.w3.org/2000/svg" xmlns:xlink="http://www.w3.org/1999/xlink" xmlns:svgjs="http://svgjs.com/svgjs" version="1.1" width="512" height="512" x="0" y="0" viewBox="0 0 512 512" style="enable-background:new 0 0 512 512" xml:space="preserve" class=""><g><g xmlns="http://www.w3.org/2000/svg"><path d="m163.908 132.333v77.331c36.895 9.629 68.476 32.555 89.285 63.335h35.139v-87.072l-8.264-53.595h-116.16z" fill="#ffffff" data-original="#000000" style="" class=""/><path d="m124.833 204.666c3.047 0 6.071.098 9.075.273v-72.606h-84.908v92.218c22.427-12.652 48.299-19.885 75.833-19.885z" fill="#ffffff" data-original="#000000" style="" class=""/><path d="m435.878 302.089c13.305 0 26.043 2.468 37.789 6.96v-42.382c0-40.012-32.552-72.565-72.565-72.565h-34.102v-26.074l25.32-16.881-16.641-24.961-38.679 25.786v42.129h-18.668v108.899h-49.34c6.888 17.513 10.674 36.572 10.674 56.5 0 13.647-1.783 26.885-5.114 39.5h55.607c4.685-54.219 50.306-96.911 105.719-96.911z" fill="#ffffff" data-original="#000000" style="" class=""/><path d="m249.666 359.5c0-68.833-56-124.833-124.833-124.833-68.833-.001-124.833 55.999-124.833 124.833s56 124.833 124.833 124.833 124.833-56 124.833-124.833zm-124.833 60.833c-33.544 0-60.833-27.29-60.833-60.833s27.289-60.833 60.833-60.833 60.833 27.29 60.833 60.833-27.29 60.833-60.833 60.833z" fill="#ffffff" data-original="#000000" style="" class=""/><path d="m155.666 359.5c0-17.001-13.832-30.833-30.833-30.833-17.002-.001-30.833 13.831-30.833 30.833s13.832 30.833 30.833 30.833 30.833-13.832 30.833-30.833z" fill="#ffffff" data-original="#000000" style="" class=""/><path d="m303 102.333v-14.667c0-33.084-26.916-60-60-60h-155.334c-33.084 0-60 26.916-60 60v14.667z" fill="#ffffff" data-original="#000000" style="" class=""/><path d="m435.878 332.089c-41.974 0-76.122 34.148-76.122 76.122s34.149 76.122 76.122 76.122c41.974 0 76.122-34.149 76.122-76.122 0-41.974-34.149-76.122-76.122-76.122zm-15.001 91.122v-30h30v30z" fill="#ffffff" data-original="#000000" style="" class=""/></g></g></svg>
