<?xml version="1.0"?>
<svg xmlns="http://www.w3.org/2000/svg" xmlns:xlink="http://www.w3.org/1999/xlink" xmlns:svgjs="http://svgjs.com/svgjs" version="1.1" width="512" height="512" x="0" y="0" viewBox="0 0 512 512" style="enable-background:new 0 0 512 512" xml:space="preserve" class=""><g>
<g xmlns="http://www.w3.org/2000/svg">
	<g>
		<path d="M128.724,405.47v87.442c0,10.526,8.563,19.088,19.089,19.088h130.75c10.525,0,19.088-8.563,19.088-19.088V405.47H128.724z    " fill="#ffffff" data-original="#000000" style="" class=""/>
	</g>
</g>
<g xmlns="http://www.w3.org/2000/svg">
	<g>
		<rect x="128.724" y="293.399" width="168.928" height="81.763" fill="#ffffff" data-original="#000000" style="" class=""/>
	</g>
</g>
<g xmlns="http://www.w3.org/2000/svg">
	<g>
		<path d="M213.188,135.039c-46.574,0-84.464,37.889-84.464,84.463v43.594h168.927v-43.594    C297.651,172.929,259.761,135.039,213.188,135.039z" fill="#ffffff" data-original="#000000" style="" class=""/>
	</g>
</g>
<g xmlns="http://www.w3.org/2000/svg">
	<g>
		<path d="M439.143,3.575c-3.41-2.881-7.918-4.105-12.316-3.361L304.816,20.967c-7.283,1.239-12.612,7.551-12.612,14.938v18.201    h-30.512V15.152C261.692,6.784,254.908,0,246.54,0h-66.705c-8.368,0-15.152,6.784-15.152,15.152v42.281    c-40.394,4.892-76.1,29.141-95.444,65.751c-3.91,7.398-1.081,16.565,6.318,20.477c2.258,1.193,4.679,1.758,7.066,1.758    c5.437,0,10.692-2.935,13.41-8.076c14.072-26.631,39.563-44.632,68.651-49.314v27.476c14.742-6.903,31.179-10.77,48.505-10.77    s33.762,3.867,48.506,10.77V84.41h30.512v18.201c0,7.387,5.328,13.7,12.612,14.938l122.011,20.753    c0.845,0.144,1.695,0.215,2.541,0.215c3.551,0,7.021-1.249,9.775-3.575c3.409-2.879,5.377-7.115,5.377-11.577V15.152    C444.52,10.689,442.553,6.454,439.143,3.575z" fill="#ffffff" data-original="#000000" style="" class=""/>
	</g>
</g>
<g xmlns="http://www.w3.org/2000/svg">
</g>
<g xmlns="http://www.w3.org/2000/svg">
</g>
<g xmlns="http://www.w3.org/2000/svg">
</g>
<g xmlns="http://www.w3.org/2000/svg">
</g>
<g xmlns="http://www.w3.org/2000/svg">
</g>
<g xmlns="http://www.w3.org/2000/svg">
</g>
<g xmlns="http://www.w3.org/2000/svg">
</g>
<g xmlns="http://www.w3.org/2000/svg">
</g>
<g xmlns="http://www.w3.org/2000/svg">
</g>
<g xmlns="http://www.w3.org/2000/svg">
</g>
<g xmlns="http://www.w3.org/2000/svg">
</g>
<g xmlns="http://www.w3.org/2000/svg">
</g>
<g xmlns="http://www.w3.org/2000/svg">
</g>
<g xmlns="http://www.w3.org/2000/svg">
</g>
<g xmlns="http://www.w3.org/2000/svg">
</g>
</g></svg>
