<?xml version="1.0"?>
<svg xmlns="http://www.w3.org/2000/svg" xmlns:xlink="http://www.w3.org/1999/xlink" xmlns:svgjs="http://svgjs.com/svgjs" version="1.1" width="512" height="512" x="0" y="0" viewBox="0 0 607.788 607.788" style="enable-background:new 0 0 512 512" xml:space="preserve"><g><g xmlns="http://www.w3.org/2000/svg"><g id="Page-1_29_"><g id="_x30_30---Fishing" transform="translate(-1)"><path id="Rectangle-path_40_" d="m364.872 93.254h188.625v41.885h-188.625z" transform="matrix(.707 -.707 .707 .707 53.738 358.133)" fill="#ffffff" data-original="#000000" style=""/><path id="Rectangle-path_39_" d="m341.896 189.575h41.917v41.875h-41.917z" transform="matrix(.707 -.707 .707 .707 -42.579 318.227)" fill="#ffffff" data-original="#000000" style=""/><path id="Shape_209_" d="m63.362 573.26c-4.103 4.036-10.684 4.036-14.786 0l-44.485-44.537c-1.971-1.933-3.084-4.575-3.091-7.335.017-2.835 1.181-5.542 3.228-7.503l129.512-132.394 16.222 16.222c-20.527 11.006-35.54 30.069-41.428 52.604s-2.12 46.505 10.399 66.146z" fill="#ffffff" data-original="#000000" style=""/><path id="Shape_208_" d="m210.615 576.32c0 5.787-4.692 10.479-10.479 10.479h-20.958c-5.787 0-10.479-4.692-10.479-10.479v-104.792c0-11.575 9.383-20.958 20.958-20.958s20.958 9.383 20.958 20.958z" fill="#ffffff" data-original="#000000" style=""/><path id="Shape_207_" d="m234.12 515.991c-.775.775-1.719 1.394-2.546 2.096v-46.559c0-23.15-18.767-41.917-41.917-41.917s-41.917 18.767-41.917 41.917v46.601c-.828-.744-1.771-1.362-2.546-2.096-24.551-24.555-24.549-64.364.005-88.916s64.362-24.553 88.916 0 24.556 64.361.005 88.916z" fill="#ffffff" data-original="#000000" style=""/><path id="Shape_206_" d="m244.148 388.439-11.171 11.443c-18.405-11.086-40.359-14.698-61.345-10.091l-23.243-23.243 36.625-37.421c11.994-11.948 29.998-15.508 45.637-9.024s25.842 21.74 25.862 38.67c.057 11.153-4.403 21.854-12.365 29.666z" fill="#ffffff" data-original="#000000" style=""/><path id="Shape_205_" d="m259.102 314.267c-5.108-5.008-11.042-9.096-17.542-12.082l76.844-76.833 29.614 29.614-76.697 76.697c-3.052-6.453-7.184-12.336-12.219-17.396z" fill="#ffffff" data-original="#000000" style=""/><path id="Shape_204_" d="m570.292 32.692-14.797 14.797-29.614-29.614 14.828-14.849c4.117-4.021 10.698-3.998 14.786.052l14.776 14.776c1.974 1.963 3.085 4.631 3.089 7.415s-1.1 5.454-3.068 7.423z" fill="#ffffff" data-original="#000000" style=""/><path id="Shape_203_" d="m563.344 202.213c39.876-43.697 50.267-106.783 26.512-160.96-1.227 2.334-2.819 4.457-4.716 6.288l-10.898 10.898c13.947 38.158 8.599 80.703-14.356 114.223l-10.27-89.597-18.862 18.863 10.689 93.055-.734.734c-34.826 37.887-89.018 51.114-137.382 33.533l-21.797 21.901c17.232 48.317 4.046 102.254-33.533 137.172-22.472 24.021-53.217 38.626-86.034 40.869 3.818 6.32 6.679 13.171 8.488 20.33 35.294-4.099 68.017-20.498 92.426-46.318 41.436-38.877 57.093-97.969 40.345-152.262 49.116 15.143 102.573 3.674 141.154-30.285l43.593 377.774c.586 5.293 5.049 9.305 10.374 9.326.387.022.776-.013 1.153-.105 2.757-.292 5.283-1.675 7.016-3.84 1.732-2.165 2.526-4.933 2.206-7.687z" fill="#ffffff" data-original="#000000" style=""/></g></g></g></g></svg>
