<?xml version="1.0"?>
<svg xmlns="http://www.w3.org/2000/svg" xmlns:xlink="http://www.w3.org/1999/xlink" xmlns:svgjs="http://svgjs.com/svgjs" version="1.1" width="512" height="512" x="0" y="0" viewBox="0 0 512.036 512.036" style="enable-background:new 0 0 512 512" xml:space="preserve" class=""><g><g xmlns="http://www.w3.org/2000/svg"><path d="m60.6 226.715c8.785 6.991 21.549 14.197 36.875 14.287l-9.767-32.492-26.173-87.067-43.817-23.561c-4.572 19.521-3.349 42.888 3.735 66.45 7.959 26.473 21.861 48.628 39.147 62.383z" fill="#ffffff" data-original="#000000" style="" class=""/><path d="m313.155 299.929h-144.271l-8.955 38.717h162.181z" fill="#ffffff" data-original="#000000" style="" class=""/><path d="m188.654 201.171h104.698v-54.461l-104.698 31.464z" fill="#ffffff" data-original="#000000" style="" class=""/><path d="m107.802 171.146 343.282-103.163c5.72-1.72 10.429-5.564 13.259-10.826 2.829-5.262 3.44-11.311 1.72-17.031-3.549-11.81-16.045-18.533-27.858-14.98l-343.281 103.163z" fill="#ffffff" data-original="#000000" style="" class=""/><path d="m175.823 269.929h130.393l-8.965-38.758h-112.463z" fill="#ffffff" data-original="#000000" style="" class=""/><path d="m370.062 407.306h-32.071l-8.942-38.66h-176.059l-8.942 38.66h-62.072v104.73h288.086z" fill="#ffffff" data-original="#000000" style="" class=""/><path d="m459.019 96.924-30 9.016v236.393h-28.957v169.667h96.957v-169.667h-38z" fill="#ffffff" data-original="#000000" style="" class=""/><path d="m41.92 250.189c-8.705-6.927-16.695-15.406-23.779-25.113h-.622v286.924h30v-257.656c-1.886-1.314-3.756-2.688-5.599-4.155z" fill="#ffffff" data-original="#000000" style="" class=""/><path d="m291.325 37.96c-6.268-21.888-26.447-37.96-50.322-37.96-28.865 0-52.35 23.483-52.35 52.349v16.467z" fill="#ffffff" data-original="#000000" style="" class=""/></g></g></svg>
