<?xml version="1.0"?>
<svg xmlns="http://www.w3.org/2000/svg" xmlns:xlink="http://www.w3.org/1999/xlink" xmlns:svgjs="http://svgjs.com/svgjs" version="1.1" width="512" height="512" x="0" y="0" viewBox="0 0 24 24" style="enable-background:new 0 0 512 512" xml:space="preserve" class=""><g><path xmlns="http://www.w3.org/2000/svg" d="m9 14.01h-1c-.552 0-1-.448-1-1s.448-1 1-1h1c.552 0 1 .448 1 1s-.448 1-1 1z" fill="#ffffff" data-original="#000000" style="" class=""/><path xmlns="http://www.w3.org/2000/svg" d="m16 14.01h-1c-.552 0-1-.448-1-1s.448-1 1-1h1c.552 0 1 .448 1 1s-.448 1-1 1z" fill="#ffffff" data-original="#000000" style="" class=""/><path xmlns="http://www.w3.org/2000/svg" d="m23.062 8.5c0-1.378-1.122-2.5-2.5-2.5h-.102c-1.15-3.589-4.546-6-8.46-6-3.857 0-7.328 2.467-8.452 6.001-1.372.008-2.486 1.125-2.486 2.499 0 1.188.835 2.181 1.948 2.434v2.651c0 1.357.271 2.676.808 3.921.175.404.605 1.182.621 1.208 1.6 2.631 4.562 5.286 7.571 5.286 2.949 0 5.887-2.603 7.5-5.198.05-.085.497-.849.695-1.301.534-1.26.805-2.583.805-3.934v-2.613c1.164-.212 2.052-1.229 2.052-2.454zm-3.58 5.625c-.943.255-1.543.845-2.039 1.342-.597.6-1.028 1.033-1.961 1.033-1.616 0-2.316-.542-2.593-.868-.222-.258-.555-.414-.913-.427-.372-.006-.704.119-.932.348-.454.432-1.263.947-2.545.947-.937 0-1.368-.433-1.965-1.031-.487-.489-1.076-1.068-1.996-1.327-.012-.185-.028-.37-.028-.557v-2.585h15v2.567c0 .187-.016.373-.028.558z" fill="#ffffff" data-original="#000000" style="" class=""/></g></svg>
