<?xml version="1.0"?>
<svg xmlns="http://www.w3.org/2000/svg" xmlns:xlink="http://www.w3.org/1999/xlink" xmlns:svgjs="http://svgjs.com/svgjs" version="1.1" width="512" height="512" x="0" y="0" viewBox="0 0 512 512" style="enable-background:new 0 0 512 512" xml:space="preserve" class=""><g><path xmlns="http://www.w3.org/2000/svg" d="m15 208h150c8.285156 0 15-6.714844 15-15v-90c0-8.285156-6.714844-15-15-15h-150c-8.285156 0-15 6.714844-15 15v90c0 8.285156 6.714844 15 15 15zm0 0" fill="#ffffff" data-original="#000000" style="" class=""/><path xmlns="http://www.w3.org/2000/svg" d="m497 482h-11v-164c0-8.285156-6.714844-15-15-15h-306v179h-30v-244h-90v244h-30c-8.285156 0-15 6.714844-15 15s6.714844 15 15 15h482c8.285156 0 15-6.714844 15-15s-6.714844-15-15-15zm-287.015625-131h231.03125c8.28125 0 15 6.714844 15 15s-6.71875 15-15 15h-231.03125c-8.285156 0-15-6.714844-15-15s6.714844-15 15-15zm0 60h231.03125c8.28125 0 15 6.714844 15 15s-6.71875 15-15 15h-231.03125c-8.285156 0-15-6.714844-15-15s6.714844-15 15-15zm0 0" fill="#ffffff" data-original="#000000" style="" class=""/><path xmlns="http://www.w3.org/2000/svg" d="m283.871094 164.773438c2.554687 5.046874 7.730468 8.230468 13.382812 8.230468h63.761719l-18.023437 26.925782c-4.609376 6.882812-2.765626 16.199218 4.117187 20.808593 2.566406 1.714844 5.464844 2.535157 8.332031 2.535157 4.835938 0 9.585938-2.335938 12.480469-6.65625l29.199219-43.613282h43.878906c8.285156 0 15-6.71875 15-15 0-8.285156-6.714844-15-15-15h-43.789062l-29.019532-43.347656c-4.609375-6.886719-13.925781-8.730469-20.8125-4.121094-6.882812 4.609375-8.726562 13.925782-4.117187 20.808594l17.847656 26.660156h-54.632813l-17.09375-33.777344c-3.738281-7.390624-12.765624-10.351562-20.15625-6.609374-7.390624 3.738281-10.351562 12.765624-6.609374 20.15625zm0 0" fill="#ffffff" data-original="#000000" style="" class=""/><path xmlns="http://www.w3.org/2000/svg" d="m135 44c0-8.285156-6.714844-15-15-15h-15v-14c0-8.285156-6.714844-15-15-15s-15 6.714844-15 15v14h-15c-8.285156 0-15 6.714844-15 15v14h90zm0 0" fill="#ffffff" data-original="#000000" style="" class=""/></g></svg>
